<svg xmlns="http://www.w3.org/2000/svg" width="1024" height="1024" viewBox="0 0 1024 1024">
  <defs>
    <linearGradient id="bg" x1="0" y1="0" x2="0" y2="1">
      <stop offset="0" stop-color="#24242c"/>
      <stop offset="1" stop-color="#0c0c10"/>
    </linearGradient>
    <linearGradient id="ink" x1="0" y1="0" x2="1" y2="1">
      <stop offset="0" stop-color="#ffffff"/>
      <stop offset="1" stop-color="#aeb8ff"/>
    </linearGradient>
  </defs>
  <rect x="92" y="92" width="840" height="840" rx="200" fill="url(#bg)"/>
  <rect x="93" y="93" width="838" height="838" rx="199" fill="none" stroke="#ffffff" stroke-opacity="0.10" stroke-width="2"/>
  <g transform="translate(512 512) scale(26) translate(-12 -12.5)"
     fill="none" stroke="url(#ink)" stroke-width="1.55" stroke-linecap="round" stroke-linejoin="round">
    <path d="M2 11.5c1.2-.6 2.6-.9 4-.9 1.8 0 3.2.6 4 2"/>
    <path d="M22 11.5c-1.2-.6-2.6-.9-4-.9-1.8 0-3.2.6-4 2"/>
    <circle cx="6" cy="14.5" r="3.4"/>
    <circle cx="18" cy="14.5" r="3.4"/>
    <path d="M9.4 14.2c.8-.5 1.7-.7 2.6-.7s1.8.2 2.6.7"/>
  </g>
</svg>
